<svg width="69" height="69" viewBox="0 0 69 69" fill="none" xmlns="http://www.w3.org/2000/svg">
<g clip-path="url(#clip0_352_519)">
<path d="M69.0011 34.5006C69.0011 53.5547 53.5547 69.0011 34.5006 69.0011C15.4464 69.0011 0 53.5547 0 34.5006C0 15.4464 15.4464 0 34.5006 0C53.5547 0 69.0011 15.4464 69.0011 34.5006Z" fill="#2156FC"/>
<path d="M49.5018 45.8147H33.1164V55.9322H19.4877V35.5827H49.5018V45.8147Z" fill="#E9ECF3"/>
<path d="M40.3202 21.804L42.0036 26.9351H33.1357V32.6862H19.4877V24.1139H33.113V21.0035L40.3202 21.804Z" fill="#E9ECF3"/>
<path d="M42.0073 26.9469L42.0036 26.9351H42.0111L42.0073 26.9469Z" fill="#E9ECF3"/>
<path d="M49.468 26.9351H42.0111L43.6944 21.804L49.4634 20.1169L43.6944 18.43L42.0073 13.2871L40.3202 18.43L33.113 19.2299V13.2871H49.468V26.9351Z" fill="#E9ECF3"/>
<path d="M33.113 21.0035L25.1263 20.1169L33.113 19.2299V21.0035Z" fill="#E9ECF3"/>
</g>
<defs>
<clipPath id="clip0_352_519">
<rect width="69" height="69" fill="white"/>
</clipPath>
</defs>
</svg>
