<svg width="110" height="51" viewBox="0 0 110 51" fill="none" xmlns="http://www.w3.org/2000/svg">
<path d="M58.2713 0.688293C58.5724 -0.229429 59.8706 -0.229432 60.1717 0.68829L65.7816 17.7889C65.8843 18.1021 66.1347 18.3445 66.451 18.437L85.6566 24.0536C86.6157 24.3341 86.6157 25.6927 85.6566 25.9732L66.451 31.5898C66.1347 31.6823 65.8843 31.9248 65.7816 32.2379L60.1717 49.3385C59.8706 50.2563 58.5724 50.2563 58.2713 49.3385L52.6978 32.3488C52.5756 31.9765 52.2474 31.7099 51.858 31.6666L0.889638 26.0073C-0.296551 25.8756 -0.296544 24.1512 0.889646 24.0195L51.8579 18.3602C52.2474 18.317 52.5756 18.0503 52.6978 17.678L58.2713 0.688293Z" fill="#667BBD"/>
<path d="M69.2713 0.688293C69.5724 -0.229429 70.8706 -0.229432 71.1717 0.68829L76.7816 17.7889C76.8843 18.1021 77.1347 18.3445 77.451 18.437L96.6566 24.0536C97.6157 24.3341 97.6157 25.6927 96.6566 25.9732L77.451 31.5898C77.1347 31.6823 76.8843 31.9248 76.7816 32.2379L71.1717 49.3385C70.8706 50.2563 69.5724 50.2563 69.2713 49.3385L63.6978 32.3488C63.5756 31.9765 63.2474 31.7099 62.858 31.6666L11.8896 26.0073C10.7034 25.8756 10.7035 24.1512 11.8896 24.0195L62.8579 18.3602C63.2474 18.317 63.5756 18.0503 63.6978 17.678L69.2713 0.688293Z" fill="white"/>
<path d="M81.2713 0.688293C81.5724 -0.229429 82.8706 -0.229432 83.1717 0.68829L88.7816 17.7889C88.8843 18.1021 89.1347 18.3445 89.451 18.437L108.657 24.0536C109.616 24.3341 109.616 25.6927 108.657 25.9732L89.451 31.5898C89.1347 31.6823 88.8843 31.9248 88.7816 32.2379L83.1717 49.3385C82.8706 50.2563 81.5724 50.2563 81.2713 49.3385L75.6978 32.3488C75.5756 31.9765 75.2474 31.7099 74.858 31.6666L23.8896 26.0073C22.7034 25.8756 22.7035 24.1512 23.8896 24.0195L74.8579 18.3602C75.2474 18.317 75.5756 18.0503 75.6978 17.678L81.2713 0.688293Z" fill="#F2B341"/>
</svg>
