<svg width="87" height="51" viewBox="0 0 87 51" fill="none" xmlns="http://www.w3.org/2000/svg">
<path d="M58.2713 0.688292C58.5724 -0.22943 59.8706 -0.229431 60.1717 0.688291L65.7816 17.7889C65.8843 18.1021 66.1347 18.3445 66.451 18.437L85.6566 24.0536C86.6157 24.3341 86.6157 25.6927 85.6566 25.9732L66.451 31.5898C66.1347 31.6823 65.8843 31.9248 65.7816 32.2379L60.1717 49.3385C59.8706 50.2563 58.5724 50.2563 58.2713 49.3385L52.6978 32.3488C52.5756 31.9765 52.2474 31.7099 51.858 31.6666L0.889639 26.0073C-0.29655 25.8756 -0.296545 24.1512 0.889645 24.0195L51.858 18.3602C52.2474 18.317 52.5756 18.0503 52.6978 17.678L58.2713 0.688292Z" fill="#F2B341"/>
</svg>
