<svg width="87" height="53" viewBox="0 0 87 53" fill="none" xmlns="http://www.w3.org/2000/svg">
<path d="M37.6294 22.117C37.9304 23.0347 39.2287 23.0347 39.5297 22.117L41.7775 15.265C41.8803 14.9519 42.1307 14.7095 42.447 14.617L50.1562 12.3624C51.1152 12.082 51.1152 10.7233 50.1562 10.4428L42.447 8.18833C42.1307 8.09582 41.8803 7.85339 41.7775 7.54024L39.5297 0.688292C39.2287 -0.22943 37.9304 -0.229431 37.6294 0.688291L35.418 7.42934C35.2958 7.80162 34.9675 8.06829 34.5781 8.11153L13.8892 10.4088C12.703 10.5405 12.703 12.2648 13.8892 12.3965L34.5781 14.6938C34.9675 14.737 35.2958 15.0037 35.418 15.3759L37.6294 22.117Z" fill="#7189D4"/>
<path d="M58.2713 2.79465C58.5724 1.87693 59.8706 1.87693 60.1717 2.79465L65.7816 19.8953C65.8843 20.2084 66.1347 20.4508 66.451 20.5434L85.6566 26.16C86.6157 26.4405 86.6157 27.7991 85.6566 28.0796L66.451 33.6962C66.1347 33.7887 65.8843 34.0311 65.7816 34.3443L60.1717 51.4449C59.8706 52.3626 58.5724 52.3626 58.2713 51.4449L52.6978 34.4552C52.5756 34.0829 52.2474 33.8162 51.858 33.773L0.889638 28.1137C-0.296551 27.982 -0.296544 26.2576 0.889646 26.1259L51.8579 20.4666C52.2474 20.4233 52.5756 20.1567 52.6978 19.7844L58.2713 2.79465Z" fill="#F2B341"/>
</svg>
